<svg width="54" height="54" viewBox="0 0 54 54" fill="none" xmlns="http://www.w3.org/2000/svg">
<path d="M27.1184 18.8723L27.7302 17.7892C27.9146 17.4694 28.2142 17.237 28.5641 17.1424C28.914 17.0478 29.2861 17.0986 29.5998 17.2837C29.9136 17.4689 30.1438 17.7735 30.2406 18.1318C30.3373 18.49 30.2929 18.873 30.117 19.1978L24.2237 29.6752H28.4839C28.7946 29.6964 29.0953 29.7964 29.3592 29.9662C29.6232 30.136 29.842 30.3703 29.9962 30.6483C30.1504 30.9263 30.2351 31.2392 30.2429 31.559C30.2506 31.8788 30.1811 32.1957 30.0405 32.4812H17.5494C17.3556 32.5064 17.1588 32.489 16.9721 32.43C16.7853 32.371 16.6129 32.2719 16.4664 32.1392C16.3198 32.0065 16.2024 31.8432 16.122 31.6603C16.0416 31.4773 16 31.2789 16 31.0782C16 30.8775 16.0416 30.679 16.122 30.4961C16.2024 30.3132 16.3198 30.1499 16.4664 30.0172C16.6129 29.8845 16.7853 29.7853 16.9721 29.7264C17.1588 29.6674 17.3556 29.65 17.5494 29.6752H21.0504L25.5345 21.6895L24.1363 19.1922C24.033 19.0311 23.9629 18.8501 23.9303 18.6601C23.8976 18.4702 23.9032 18.2754 23.9465 18.0877C23.9898 17.9001 24.0701 17.7235 24.1823 17.5689C24.2945 17.4142 24.4363 17.2848 24.599 17.1886C24.7617 17.0924 24.9418 17.0313 25.1283 17.0093C25.3148 16.9872 25.5037 17.0046 25.6834 17.0603C25.8631 17.1161 26.0298 17.209 26.1733 17.3334C26.3168 17.4578 26.4339 17.611 26.5176 17.7836L27.1184 18.8723ZM21.8478 33.9346L20.5261 36.2916C20.3436 36.6168 20.0428 36.8542 19.6899 36.9516C19.3371 37.0489 18.961 36.9983 18.6445 36.8107C18.328 36.6232 18.097 36.3142 18.0022 35.9516C17.9075 35.589 17.9568 35.2026 18.1393 34.8774L19.117 33.149C19.5935 32.9581 20.1175 32.9315 20.6101 33.0732C21.1026 33.2149 21.537 33.5172 21.8478 33.9346ZM33.2247 29.6696H36.7967C37.1291 29.7129 37.4347 29.8793 37.6562 30.1376C37.8778 30.3959 38 30.7283 38 31.0726C38 31.4168 37.8778 31.7493 37.6562 32.0076C37.4347 32.2659 37.1291 32.4323 36.7967 32.4755H34.7813L36.1249 34.8606C36.3074 35.1858 36.3567 35.5722 36.262 35.9348C36.1672 36.2973 35.9362 36.6064 35.6197 36.7939C35.3032 36.9814 34.9271 37.0321 34.5743 36.9347C34.2214 36.8374 33.9206 36.6 33.7381 36.2748C31.4842 32.2529 29.7929 29.2412 28.6641 27.2397C28.2177 26.5005 28.0226 25.63 28.1096 24.7646C28.1966 23.8993 28.5607 23.0881 29.1448 22.4583C30.0441 24.0484 31.395 26.4465 33.1974 29.6528L33.2247 29.6696Z" fill="white"/>
</svg>
