<svg width="198" height="54" viewBox="0 0 198 54" fill="none" xmlns="http://www.w3.org/2000/svg">
<g clip-path="url(#clip0_202_109)">
<path d="M73.331 19.9182H66.5919V33.9582H69.6907V28.6467H73.331C75.6484 28.6821 78.3121 27.611 78.3121 24.3444C78.3121 21.0779 75.6484 19.9182 73.331 19.9182ZM73.1978 25.991H69.6907V22.574H73.2422C73.4805 22.5584 73.7195 22.5909 73.9449 22.6696C74.1704 22.7482 74.3775 22.8714 74.5541 23.0317C74.7307 23.192 74.873 23.3862 74.9725 23.6027C75.0721 23.8191 75.1268 24.0533 75.1334 24.2913C75.1249 24.5319 75.0672 24.7681 74.9639 24.9857C74.8607 25.2032 74.7139 25.3974 74.5327 25.5565C74.3515 25.7155 74.1397 25.836 73.9101 25.9106C73.6806 25.9851 73.4382 26.0122 73.1978 25.9901V25.991ZM111.59 19.9182H108.447L106.085 29.1602H106.041L103.12 19.9182H100.234L97.2864 28.93H97.2508L95.0045 19.9182H91.6216L95.7947 33.9582H98.4673L101.566 24.2471H101.602L104.709 33.9582H107.47L111.59 19.9182ZM113.925 19.9182H117.033V33.9582H113.925V19.9182ZM139.967 28.3103H146.635V33.9582H149.734V19.9182H146.635V25.5749H139.967V19.9182H136.86V33.9582H139.967V28.3103ZM130.511 29.3018L123.675 19.9182H120.265V33.9671H123.373V24.5923L130.209 33.9671H133.61V19.9182H130.511V29.3018ZM157.21 19.9182L150.995 33.9582H154.396L155.186 31.8867H161.712L162.502 33.9582H165.903L159.821 19.9182H157.21ZM160.762 29.2487H156.269L158.533 23.291L160.762 29.2487ZM88.3098 31.8867L89.0911 33.9582H92.4917L86.3298 19.9182H83.7638L77.5929 33.9582H80.9935L81.7749 31.8867H88.3098ZM85.0423 23.2999L87.3065 29.2487H82.7782L85.0423 23.2999ZM189.254 19.9182H184.415V33.9671H189.254C192.975 33.9671 197.245 32.2585 197.245 26.9471C197.245 21.6356 192.975 19.9182 189.254 19.9182ZM189.556 31.1343H187.514V22.7687H189.556C191.483 22.7687 194.173 23.7867 194.173 26.9559C194.173 30.1251 191.483 31.1343 189.556 31.1343ZM177.765 33.9671H181.166V19.9182H178.067V29.3018L171.221 19.9182H167.821V33.9671H170.919V24.5923L177.765 33.9671Z" fill="#F29700"/>
<path fill-rule="evenodd" clip-rule="evenodd" d="M10.4701 44.1211C10.1318 43.3749 11.3331 42.0054 12.5238 41.3025C14.0731 40.3863 15.793 39.4966 17.4365 38.6326C19.0808 37.7695 21.3521 36.5841 22.6733 35.9981C24.2777 35.2873 25.5367 35.7715 26.6368 36.4407C27.19 36.7771 27.1891 37.4588 26.6368 37.812C25.7542 38.3768 23.2557 39.8091 20.9143 40.9767C18.5739 42.1444 15.999 43.3704 14.0083 44.1787C12.0168 44.9869 10.7764 44.7886 10.4701 44.1211ZM6.69119 39.9746C5.71717 37.9678 12.712 35.2607 17.8902 32.7289C19.2176 32.0791 21.4577 32.7917 21.7942 33.731C22.121 34.6428 19.9856 35.5573 18.6351 36.1973C17.3033 36.8276 13.0254 38.8486 10.9105 39.7471C9.16042 40.4925 7.19373 41.0112 6.69119 39.9746ZM12.1739 30.2989C14.4372 29.3614 16.0771 30.144 16.5059 30.5175C16.8425 30.8097 17.4116 31.4293 15.7273 32.196C11.2736 34.2232 6.52426 36.6753 5.66745 35.1704C4.95358 33.9151 7.53646 32.2199 12.1739 30.2989ZM52.6476 30.2874C52.2383 30.0484 51.6878 30.1944 51.0139 30.7265C50.562 31.085 50.142 31.4249 49.7398 31.7516C48.1114 33.0688 46.7103 34.2037 44.3449 35.567C40.7756 37.6225 35.6871 39.725 32.1737 41.1609C31.0887 41.6026 29.6334 42.294 27.9473 43.0951C25.9451 44.0468 23.6766 45.1232 21.4382 46.0633C19.444 46.899 18.4762 46.7069 18.2329 46.2492C17.8902 45.5977 18.4016 44.7718 19.4209 44.1317C20.2058 43.6404 21.6193 42.849 23.1145 42.0098C24.4863 41.2405 33.5748 36.099 33.6316 36.0645C34.6824 35.4222 35.6503 34.654 36.5137 33.777C36.7348 33.5539 36.9577 33.3326 37.1637 33.0954C37.6816 32.499 38.1423 31.8556 38.5399 31.1735C39.0815 30.2467 39.4837 29.2826 39.6205 28.3195C39.8238 26.9137 39.4438 25.5699 38.4946 24.3253C36.6904 21.9616 31.0523 19.6423 28.7748 18.9916C26.4992 18.3419 22.2098 16.6865 21.3556 16.3766C19.8737 15.8393 18.9139 14.9399 18.6351 13.7882C18.2977 12.3983 18.6147 11.5963 21.3982 12.2903C25.3733 13.2818 34.1235 15.0319 38.2682 16.9379C44.1594 19.6441 44.8244 19.058 46.768 18.4481L46.8701 18.4153C49.3189 17.6496 50.5069 16.9441 50.8425 16.0553C51.1781 15.1683 50.6481 14.191 49.9191 13.0083C49.9191 13.0056 49.9165 13.0021 49.9147 12.9994C47.4025 8.89213 43.8396 5.52514 39.5915 3.24391C35.3434 0.962686 30.563 -0.150639 25.7409 0.0181663C21.3221 0.174557 17.0086 1.40569 13.1761 3.60435C9.34365 5.80301 6.10844 8.90252 3.75226 12.6329C3.73717 12.6559 2.30677 14.9045 3.80909 16.389C3.80909 16.389 6.0155 19.0076 19.8045 19.7069C20.7598 19.76 21.6948 19.8123 22.5862 19.8689C24.5325 19.9946 26.1937 20.2071 27.8585 20.6214C28.694 20.856 29.51 21.1118 30.2967 21.3907C33.2853 22.4503 35.8061 23.8162 37.0322 25.4221C37.4282 25.9408 37.66 26.4649 37.7648 27.0005C37.7834 27.0952 37.8065 27.1908 37.8163 27.2864C37.8411 27.5422 37.8447 27.7998 37.8065 28.0636C37.7701 28.3159 37.6733 28.5735 37.5898 28.8312C37.5654 28.6792 37.5215 28.5311 37.4593 28.3903C36.7268 26.9774 35.4918 26.0621 35.1011 26.0373C34.8587 26.0223 34.7069 26.1064 34.5994 26.2896C34.5595 26.3562 34.5333 26.43 34.5221 26.5068C34.511 26.5835 34.5152 26.6617 34.5345 26.7369C34.5538 26.812 34.5879 26.8826 34.6347 26.9445C34.6815 27.0065 34.7401 27.0586 34.8072 27.0978C34.8232 27.1076 36.2811 27.9928 36.7321 29.3207C36.868 29.7589 36.9026 30.082 36.892 30.3653C36.8706 30.8858 36.6371 31.2328 36.1559 31.5984C36.1435 31.5586 36.1204 31.5205 36.1079 31.4807C35.9793 31.1059 35.7828 30.7579 35.5282 30.4538C34.4511 29.1791 33.4141 28.7603 33.3688 28.7453C33.2248 28.6959 33.0672 28.7036 32.9287 28.7668C32.7902 28.83 32.6813 28.9437 32.6246 29.0847C32.5678 29.2256 32.5675 29.3828 32.6237 29.524C32.6799 29.6651 32.7884 29.7793 32.9266 29.843C32.9355 29.843 33.7453 30.1829 34.6145 31.2125C34.9395 31.5984 35.1011 31.9871 35.102 32.3934C35.0886 32.4403 35.07 32.5439 35.0398 32.6678C34.9497 33.0514 34.7552 33.4027 34.4778 33.6832C34.072 34.1099 33.399 34.2807 33.0163 34.3135C33.0057 34.3135 32.9914 34.3179 32.9817 34.3188C31.9384 32.2526 30.595 31.9038 30.4317 31.8711C30.2799 31.8406 30.1222 31.8709 29.9926 31.9553C29.863 32.0398 29.772 32.1717 29.7391 32.3226C29.7063 32.4744 29.7343 32.6331 29.8173 32.7646C29.9003 32.8961 30.0315 32.9901 30.183 33.0263C30.2274 33.037 31.1677 33.3061 31.9588 34.9278C31.9624 34.9367 31.9677 34.942 31.9713 34.9509C31.9535 35.019 31.9144 35.3182 31.4767 35.5192C31.11 35.6874 30.7291 35.7671 30.3331 35.7936C29.3244 35.86 28.1844 35.4855 26.6821 34.6286C25.7258 34.0833 24.7731 33.4406 23.7636 32.7625C21.9461 31.5391 19.8879 30.1528 17.385 29.0826C14.1743 27.7087 12.2085 27.8202 9.35575 28.0318C6.50295 28.2442 3.71053 28.9347 0.940307 29.6358C0.677491 29.7421 0.462621 29.9103 0.306352 30.1466C-0.185541 30.8849 0.0604055 31.9773 0.0701723 32.0163C1.25728 38.3006 4.681 43.9848 9.70736 48.0215C14.7928 52.1016 21.1826 54.2179 27.7058 53.9828C39.9614 53.5446 50.4297 44.9373 53.159 33.0697L53.1945 32.9599L53.199 32.9449L53.2043 32.9148C53.326 32.1774 53.3641 30.7061 52.6476 30.2874Z" fill="#F29700"/>
</g>
<defs>
<clipPath id="clip0_202_109">
<rect width="198" height="54" fill="white"/>
</clipPath>
</defs>
</svg>
