<svg width="102" height="102" viewBox="0 0 102 102" fill="none" xmlns="http://www.w3.org/2000/svg">
<path d="M51 75.48L51 86.7" stroke="#F29700" stroke-linecap="round" stroke-linejoin="round"/>
<path fill-rule="evenodd" clip-rule="evenodd" d="M30.6 87.21C30.8817 87.21 31.11 87.4646 31.11 87.7788V101.431C31.11 101.745 30.8817 102 30.6 102C30.3183 102 30.09 101.745 30.09 101.431V87.7788C30.09 87.4646 30.3183 87.21 30.6 87.21Z" fill="#F29700"/>
<path fill-rule="evenodd" clip-rule="evenodd" d="M71.4 87.21C71.6817 87.21 71.91 87.4646 71.91 87.7788V101.431C71.91 101.745 71.6817 102 71.4 102C71.1183 102 70.89 101.745 70.89 101.431V87.7788C70.89 87.4646 71.1183 87.21 71.4 87.21Z" fill="#F29700"/>
<path d="M37.0467 51.1182C37.0467 52.971 35.5485 54.471 33.7029 54.471C31.8573 54.471 30.3591 52.971 30.3591 51.1182C30.3591 49.2654 31.8573 47.7654 33.7029 47.7654C35.5485 47.7654 37.0467 49.2654 37.0467 51.1182Z" stroke="#F29700"/>
<path d="M71.6408 51.1182C71.6408 52.971 70.1427 54.471 68.297 54.471C66.4514 54.471 64.9532 52.971 64.9532 51.1182C64.9532 49.2654 66.4514 47.7654 68.297 47.7654C70.1427 47.7654 71.6408 49.2654 71.6408 51.1182Z" stroke="#F29700"/>
<path d="M63.4005 7.1092L89.4629 0.601699L89.4641 0.601392C89.9037 0.49048 90.3611 0.470315 90.8086 0.542116C91.2561 0.613918 91.6844 0.776195 92.0675 1.01914C92.4506 1.26208 92.7805 1.58064 93.0371 1.95548C93.2932 2.32964 93.471 2.75208 93.5595 3.1972C93.5596 3.19802 93.5598 3.19885 93.56 3.19967L101.438 45.3806C101.438 45.3811 101.439 45.3815 101.439 45.382C102.066 48.826 97.6708 50.8251 95.5006 48.0641L63.4005 7.1092Z" stroke="#F29700" stroke-linecap="round" stroke-linejoin="round"/>
<path d="M12.5358 0.601394L12.537 0.601698L38.5995 7.1092L6.49938 48.0641C6.49931 48.0642 6.49924 48.0643 6.49916 48.0644C4.32878 50.8251 -0.0662102 48.8257 0.561447 45.3816C0.561506 45.3813 0.561564 45.3809 0.561623 45.3806L8.43999 3.19967C8.44016 3.19882 8.44033 3.19797 8.4405 3.19712C8.52902 2.75202 8.70674 2.32962 8.96284 1.95548C9.21943 1.58063 9.54933 1.26208 9.93244 1.01914C10.3156 0.776196 10.7439 0.613918 11.1914 0.542116C11.6389 0.470315 12.0963 0.49048 12.5358 0.601394Z" stroke="#F29700" stroke-linecap="round" stroke-linejoin="round"/>
<path d="M38.76 7.14001L63.24 7.14002" stroke="#F29700" stroke-linecap="round" stroke-linejoin="round"/>
<mask id="path-9-inside-1_63_350" fill="white">
<path d="M89.4379 39.78V72.3088C89.4379 76.3961 87.8181 80.316 84.9347 83.2062C82.0513 86.0964 78.1405 87.7201 74.0628 87.7201H27.9373C23.8595 87.7201 19.9488 86.0964 17.0654 83.2062C14.182 80.316 12.5621 76.3961 12.5621 72.3088V39.78"/>
</mask>
<path d="M90.4379 39.78C90.4379 39.2277 89.9902 38.78 89.4379 38.78C88.8857 38.78 88.4379 39.2277 88.4379 39.78H90.4379ZM12.5621 72.3088H11.5621H12.5621ZM13.5621 39.78C13.5621 39.2277 13.1144 38.78 12.5621 38.78C12.0098 38.78 11.5621 39.2277 11.5621 39.78H13.5621ZM88.4379 39.78V72.3088H90.4379V39.78H88.4379ZM88.4379 72.3088C88.4379 76.1317 86.9228 79.7975 84.2267 82.4999L85.6426 83.9125C88.7133 80.8346 90.4379 76.6606 90.4379 72.3088H88.4379ZM84.2267 82.4999C81.5307 85.2023 77.8745 86.7201 74.0628 86.7201V88.7201C78.4065 88.7201 82.5718 86.9905 85.6426 83.9125L84.2267 82.4999ZM74.0628 86.7201H27.9373V88.7201H74.0628V86.7201ZM27.9373 86.7201C24.1255 86.7201 20.4693 85.2023 17.7733 82.4999L16.3574 83.9125C19.4282 86.9905 23.5935 88.7201 27.9373 88.7201V86.7201ZM17.7733 82.4999C15.0772 79.7975 13.5621 76.1317 13.5621 72.3088H11.5621C11.5621 76.6606 13.2867 80.8346 16.3574 83.9125L17.7733 82.4999ZM13.5621 72.3088V39.78H11.5621V72.3088H13.5621Z" fill="#F29700" mask="url(#path-9-inside-1_63_350)"/>
<path d="M43.86 67.3199L51 75.4799L58.14 67.3199" stroke="#F29700" stroke-linecap="round"/>
</svg>
