<svg width="102" height="102" viewBox="0 0 102 102" fill="none" xmlns="http://www.w3.org/2000/svg">
<g clip-path="url(#clip0_223_1195)">
<path d="M22.8888 0.5H79.1112C83.4288 0.5 87.5679 2.18463 90.6182 5.18049C93.6682 8.17604 95.38 12.237 95.38 16.4694V55.6H6.62V16.4694C6.62 12.237 8.3318 8.17604 11.3818 5.18049C14.4321 2.18463 18.5712 0.5 22.8888 0.5Z" stroke="#F29700"/>
<path d="M4.08 75.5V89.6623C4.08 92.7926 5.36957 95.7947 7.66501 98.0081C9.96046 100.222 13.0738 101.465 16.32 101.465H85.68C88.9262 101.465 92.0395 100.222 94.335 98.0081C96.6304 95.7947 97.92 92.7926 97.92 89.6623L97.92 75.5" stroke="#F29700"/>
<path d="M21.42 57.12H19.38V57.1404H21.42V57.12Z" fill="#F29700"/>
<path d="M31.62 57.12H29.58V57.1404H31.62V57.12Z" fill="#F29700"/>
<path d="M41.82 57.12H39.78V57.1404H41.82V57.12Z" fill="#F29700"/>
<path d="M52.02 57.12H49.98V57.1404H52.02V57.12Z" fill="#F29700"/>
<path d="M62.22 57.12H60.18V57.1404H62.22V57.12Z" fill="#F29700"/>
<path d="M72.42 57.12H70.38V57.1404H72.42V57.12Z" fill="#F29700"/>
<path d="M82.62 57.12H80.58V57.1404H82.62V57.12Z" fill="#F29700"/>
<path fill-rule="evenodd" clip-rule="evenodd" d="M84.66 20.91H17.34V19.89H84.66V20.91Z" fill="#F29700"/>
<path fill-rule="evenodd" clip-rule="evenodd" d="M22.44 55.08L22.44 13.26L23.46 13.26L23.46 55.08L22.44 55.08Z" fill="#F29700"/>
<path fill-rule="evenodd" clip-rule="evenodd" d="M31.62 55.08L31.62 11.22L32.64 11.22L32.64 55.08L31.62 55.08Z" fill="#F29700"/>
<path fill-rule="evenodd" clip-rule="evenodd" d="M40.8 55.08L40.8 11.22L41.82 11.22L41.82 55.08L40.8 55.08Z" fill="#F29700"/>
<path fill-rule="evenodd" clip-rule="evenodd" d="M49.98 55.08L49.98 11.22L51 11.22L51 55.08L49.98 55.08Z" fill="#F29700"/>
<path fill-rule="evenodd" clip-rule="evenodd" d="M59.16 55.08L59.16 11.22L60.18 11.22L60.18 55.08L59.16 55.08Z" fill="#F29700"/>
<path fill-rule="evenodd" clip-rule="evenodd" d="M68.34 55.08L68.34 11.22L69.36 11.22L69.36 55.08L68.34 55.08Z" fill="#F29700"/>
<path fill-rule="evenodd" clip-rule="evenodd" d="M77.52 55.08L77.52 13.26L78.54 13.26L78.54 55.08L77.52 55.08Z" fill="#F29700"/>
<path fill-rule="evenodd" clip-rule="evenodd" d="M85.68 30.0899H15.3V29.0699H85.68V30.0899Z" fill="#F29700"/>
<path fill-rule="evenodd" clip-rule="evenodd" d="M85.68 39.27H15.3V38.25H85.68V39.27Z" fill="#F29700"/>
<path fill-rule="evenodd" clip-rule="evenodd" d="M85.68 48.4501H15.3V47.4301H85.68V48.4501Z" fill="#F29700"/>
<path d="M2.55 55.58H99.45C100.582 55.58 101.5 56.4978 101.5 57.63V72.93C101.5 74.0621 100.582 74.98 99.45 74.98H2.55C1.41782 74.98 0.5 74.0621 0.5 72.93V57.63C0.5 56.4978 1.41782 55.58 2.55 55.58Z" stroke="#F29700"/>
<path d="M86.1195 26.606L86.1986 55.6H15.8V26.6051C15.8157 22.393 17.5099 18.3569 20.5147 15.3771C23.5196 12.3972 27.5915 10.7155 31.8428 10.7H70.0767C74.328 10.7155 78.3999 12.3972 81.4048 15.3771C84.4098 18.3571 86.1041 22.3935 86.1195 26.606Z" stroke="#F29700"/>
</g>
<defs>
<clipPath id="clip0_223_1195">
<rect width="102" height="102" fill="white"/>
</clipPath>
</defs>
</svg>
