<svg width="102" height="102" viewBox="0 0 102 102" fill="none" xmlns="http://www.w3.org/2000/svg">
<path d="M5.52112 79.2772L48.2536 36.489L65.537 53.795L22.8045 96.5832L5.52112 79.2772Z" stroke="#F29700"/>
<path d="M9.7381 101.391L0.60811 92.2483L6.54692 80.354L21.6157 95.444L9.7381 101.391Z" stroke="#F29700"/>
<path d="M41.0036 29.3259L47.3099 23.0114L79.0087 54.7515L72.7023 61.066L41.0036 29.3259Z" stroke="#F29700"/>
<path d="M5.52139 79.2958L25.6572 59.1337L59.5709 59.779L22.8071 96.579L5.52139 79.2958Z" stroke="#F29700"/>
<path d="M58.1143 33.8506L73.8995 18.0447L83.9947 28.153L68.2094 43.9589L58.1143 33.8506Z" stroke="#F29700"/>
<path d="M66.6879 10.8158L76.783 0.707475L101.294 25.25L91.1984 35.3583L66.6879 10.8158Z" stroke="#F29700"/>
</svg>
