<svg width="102" height="102" viewBox="0 0 102 102" fill="none" xmlns="http://www.w3.org/2000/svg">
<g clip-path="url(#clip0_63_294)">
<path d="M81.6 42.9118H81.1V43.4118V84.5H73H72.555L72.5034 84.942L71.1527 96.5H57.6H38.4H14.9V43.4118V42.9118H14.4H1.29826L48 0.674158L94.7017 42.9118H81.6Z" stroke="#F29700"/>
<mask id="path-2-inside-1_63_294" fill="white">
<path fill-rule="evenodd" clip-rule="evenodd" d="M39.6432 39.8462C39.3073 42.1947 37.2876 44 34.8462 44C32.1697 44 30 41.8303 30 39.1538C30 37.391 30.9413 35.848 32.3486 35C30.9413 34.152 30 32.609 30 30.8462C30 28.1697 32.1697 26 34.8462 26C37.2876 26 39.3073 27.8053 39.6432 30.1538H56.3568C56.6927 27.8053 58.7124 26 61.1538 26C63.8303 26 66 28.1697 66 30.8462C66 32.609 65.0587 34.152 63.6514 35C65.0587 35.848 66 37.391 66 39.1538C66 41.8303 63.8303 44 61.1538 44C58.7124 44 56.6927 42.1947 56.3568 39.8462H39.6432Z"/>
</mask>
<path d="M39.6432 39.8462V38.8462H38.7761L38.6533 39.7046L39.6432 39.8462ZM32.3486 35L32.8647 35.8565L34.2862 35L32.8647 34.1435L32.3486 35ZM39.6432 30.1538L38.6533 30.2954L38.7761 31.1538H39.6432V30.1538ZM56.3568 30.1538V31.1538H57.2239L57.3467 30.2954L56.3568 30.1538ZM63.6514 35L63.1353 34.1435L61.7138 35L63.1353 35.8565L63.6514 35ZM56.3568 39.8462L57.3467 39.7046L57.2239 38.8462H56.3568V39.8462ZM38.6533 39.7046C38.3868 41.5675 36.7829 43 34.8462 43V45C37.7922 45 40.2278 42.8218 40.6332 39.9878L38.6533 39.7046ZM34.8462 43C32.722 43 31 41.278 31 39.1538H29C29 42.3826 31.6174 45 34.8462 45V43ZM31 39.1538C31 37.756 31.7451 36.5311 32.8647 35.8565L31.8325 34.1435C30.1374 35.1649 29 37.0261 29 39.1538H31ZM32.8647 34.1435C31.7451 33.4689 31 32.244 31 30.8462H29C29 32.9739 30.1374 34.8351 31.8325 35.8565L32.8647 34.1435ZM31 30.8462C31 28.722 32.722 27 34.8462 27V25C31.6174 25 29 27.6174 29 30.8462H31ZM34.8462 27C36.7829 27 38.3868 28.4325 38.6533 30.2954L40.6332 30.0122C40.2278 27.1782 37.7922 25 34.8462 25V27ZM39.6432 31.1538H56.3568V29.1538H39.6432V31.1538ZM57.3467 30.2954C57.6132 28.4325 59.2171 27 61.1538 27V25C58.2078 25 55.7722 27.1782 55.3668 30.0122L57.3467 30.2954ZM61.1538 27C63.278 27 65 28.722 65 30.8462H67C67 27.6174 64.3826 25 61.1538 25V27ZM65 30.8462C65 32.244 64.2549 33.4689 63.1353 34.1435L64.1675 35.8565C65.8626 34.8351 67 32.9739 67 30.8462H65ZM63.1353 35.8565C64.2549 36.5311 65 37.756 65 39.1538H67C67 37.0261 65.8626 35.1649 64.1675 34.1435L63.1353 35.8565ZM65 39.1538C65 41.278 63.278 43 61.1538 43V45C64.3826 45 67 42.3826 67 39.1538H65ZM61.1538 43C59.2171 43 57.6132 41.5675 57.3467 39.7046L55.3668 39.9878C55.7722 42.8218 58.2078 45 61.1538 45V43ZM56.3568 38.8462H39.6432V40.8462H56.3568V38.8462Z" fill="#F29700" mask="url(#path-2-inside-1_63_294)"/>
<path d="M99.4224 84.5L101.437 101.5H70.5628L71.0299 97.5588L71.1632 96.4338L71.1632 96.4339L71.1638 96.4285L71.2037 96.0575L71.2962 95.3115L71.2962 95.3115L71.2965 95.3088L71.5632 93.0588L71.5632 93.0589L71.5638 93.0539L71.9966 89.0583L72.574 84.5H80.5H86H99.4224Z" stroke="#F29700"/>
<circle cx="48" cy="23" r="1" fill="#F29700"/>
<line x1="40.6464" y1="30.6464" x2="47.6464" y2="23.6464" stroke="#F29700"/>
<line y1="-0.5" x2="9.8995" y2="-0.5" transform="matrix(-0.707107 -0.707107 -0.707107 0.707107 55 31)" stroke="#F29700"/>
<path d="M48 52.5C52.0323 52.5 55.6812 53.8595 58.3151 55.7494C60.9737 57.657 62.5 60.0262 62.5 62V96.5H33.5V62C33.5 60.0262 35.0263 57.657 37.6849 55.7494C40.3188 53.8595 43.9677 52.5 48 52.5Z" stroke="#F29700"/>
</g>
<defs>
<clipPath id="clip0_63_294">
<rect width="102" height="102" fill="white"/>
</clipPath>
</defs>
</svg>
