<svg width="54" height="54" viewBox="0 0 54 54" fill="none" xmlns="http://www.w3.org/2000/svg">
<path d="M31.6476 16H22.3524C18.8492 16 16 18.8492 16 22.3524V31.6476C16 35.1508 18.8492 38 22.3524 38H31.6476C35.1508 38 38 35.1508 38 31.6476V22.3368C38 18.8337 35.1508 16 31.6476 16ZM35.9759 31.8032C35.9759 34.1232 34.092 36.0226 31.7565 36.0226H22.2435C19.9235 36.0226 18.0241 34.1387 18.0241 31.8032V22.2901C18.0241 19.9703 19.908 18.0707 22.2435 18.0707H31.7565C34.0765 18.0707 35.9759 19.9547 35.9759 22.2901V31.8032Z" fill="white"/>
<path d="M27.0081 21.3403C23.8631 21.3403 21.3097 23.8938 21.3097 27.0389C21.3097 30.1839 23.8631 32.7374 27.0081 32.7374C30.1533 32.7374 32.7066 30.1839 32.7066 27.0389C32.7066 23.8938 30.1533 21.3403 27.0081 21.3403ZM27.0081 30.7445C24.9685 30.7445 23.3026 29.0941 23.3026 27.0389C23.3026 24.9992 24.953 23.3488 27.0081 23.3488C29.0478 23.3488 30.7138 24.9992 30.7138 27.0545C30.6981 29.0941 29.0478 30.7445 27.0081 30.7445Z" fill="white"/>
<path d="M32.8944 22.4457C33.6253 22.4457 34.2179 21.8532 34.2179 21.1223C34.2179 20.3914 33.6253 19.7988 32.8944 19.7988C32.1636 19.7988 31.571 20.3914 31.571 21.1223C31.571 21.8532 32.1636 22.4457 32.8944 22.4457Z" fill="white"/>
</svg>
