<svg width="198" height="54" viewBox="0 0 198 54" fill="none" xmlns="http://www.w3.org/2000/svg">
<g clip-path="url(#clip0_215_1121)">
<path d="M73.331 19.918H66.5919V33.958H69.6907V28.6466H73.331C75.6484 28.682 78.3121 27.6108 78.3121 24.3443C78.3121 21.0777 75.6484 19.918 73.331 19.918ZM73.1978 25.9908H69.6907V22.5738H73.2422C73.4805 22.5582 73.7195 22.5907 73.9449 22.6694C74.1704 22.748 74.3775 22.8712 74.5541 23.0315C74.7307 23.1919 74.873 23.386 74.9725 23.6025C75.0721 23.8189 75.1268 24.0531 75.1334 24.2911C75.1249 24.5317 75.0672 24.7679 74.9639 24.9855C74.8607 25.203 74.7139 25.3973 74.5327 25.5563C74.3515 25.7153 74.1397 25.8358 73.9101 25.9104C73.6806 25.9849 73.4382 26.012 73.1978 25.9899V25.9908ZM111.59 19.918H108.447L106.085 29.16H106.041L103.12 19.918H100.234L97.2864 28.9298H97.2508L95.0045 19.918H91.6216L95.7947 33.958H98.4673L101.566 24.2469H101.602L104.709 33.958H107.47L111.59 19.918ZM113.925 19.918H117.033V33.958H113.925V19.918ZM139.967 28.3102H146.635V33.958H149.734V19.918H146.635V25.5748H139.967V19.918H136.86V33.958H139.967V28.3102ZM130.511 29.3016L123.675 19.918H120.265V33.9669H123.373V24.5921L130.209 33.9669H133.61V19.918H130.511V29.3016ZM157.21 19.918L150.995 33.958H154.396L155.186 31.8866H161.712L162.502 33.958H165.903L159.821 19.918H157.21ZM160.762 29.2485H156.269L158.533 23.2908L160.762 29.2485ZM88.3098 31.8866L89.0911 33.958H92.4917L86.3298 19.918H83.7638L77.5929 33.958H80.9935L81.7749 31.8866H88.3098ZM85.0423 23.2997L87.3065 29.2485H82.7782L85.0423 23.2997ZM189.254 19.918H184.415V33.9669H189.254C192.975 33.9669 197.245 32.2584 197.245 26.9469C197.245 21.6354 192.975 19.918 189.254 19.918ZM189.556 31.1341H187.514V22.7685H189.556C191.483 22.7685 194.173 23.7866 194.173 26.9557C194.173 30.1249 191.483 31.1341 189.556 31.1341ZM177.765 33.9669H181.166V19.918H178.067V29.3016L171.221 19.918H167.821V33.9669H170.919V24.5921L177.765 33.9669Z" fill="white"/>
<path fill-rule="evenodd" clip-rule="evenodd" d="M10.4701 44.121C10.1318 43.3748 11.3331 42.0053 12.5238 41.3024C14.0731 40.3862 15.793 39.4965 17.4365 38.6325C19.0808 37.7694 21.3521 36.584 22.6732 35.998C24.2777 35.2872 25.5367 35.7714 26.6368 36.4406C27.19 36.777 27.1891 37.4587 26.6368 37.8119C25.7542 38.3767 23.2557 39.809 20.9143 40.9766C18.5739 42.1443 15.999 43.3703 14.0083 44.1786C12.0168 44.9868 10.7764 44.7885 10.4701 44.121ZM6.69119 39.9745C5.71717 37.9677 12.712 35.2606 17.8902 32.7288C19.2176 32.079 21.4577 32.7917 21.7942 33.7309C22.121 34.6427 19.9856 35.5572 18.6351 36.1972C17.3033 36.8275 13.0254 38.8485 10.9105 39.747C9.16042 40.4924 7.19373 41.0112 6.69119 39.9745ZM12.1739 30.2988C14.4372 29.3613 16.0771 30.1439 16.5059 30.5175C16.8425 30.8096 17.4116 31.4293 15.7273 32.1959C11.2736 34.2231 6.52426 36.6752 5.66745 35.1703C4.95358 33.915 7.53646 32.2198 12.1739 30.2988ZM52.6476 30.2873C52.2383 30.0483 51.6878 30.1943 51.0139 30.7264C50.562 31.0849 50.142 31.4248 49.7398 31.7515C48.1114 33.0687 46.7103 34.2036 44.3449 35.5669C40.7756 37.6224 35.6871 39.7249 32.1737 41.1608C31.0887 41.6025 29.6334 42.2939 27.9473 43.095C25.9451 44.0467 23.6766 45.1231 21.4382 46.0633C19.444 46.8989 18.4762 46.7068 18.2329 46.2492C17.8902 45.5976 18.4016 44.7717 19.4209 44.1317C20.2058 43.6403 21.6193 42.8489 23.1145 42.0097C24.4863 41.2404 33.5748 36.0989 33.6316 36.0644C34.6824 35.4221 35.6503 34.6539 36.5137 33.7769C36.7348 33.5538 36.9577 33.3325 37.1637 33.0953C37.6816 32.4989 38.1423 31.8555 38.5399 31.1734C39.0815 30.2466 39.4837 29.2825 39.6205 28.3194C39.8238 26.9136 39.4438 25.5698 38.4946 24.3252C36.6904 21.9616 31.0523 19.6422 28.7748 18.9916C26.4992 18.3418 22.2098 16.6864 21.3556 16.3765C19.8737 15.8392 18.9139 14.9398 18.6351 13.7881C18.2977 12.3982 18.6147 11.5962 21.3982 12.2902C25.3733 13.2817 34.1235 15.0318 38.2682 16.9378C44.1594 19.644 44.8244 19.0579 46.768 18.448L46.8701 18.4153C49.3189 17.6495 50.5069 16.944 50.8425 16.0552C51.1781 15.1682 50.6481 14.1909 49.9191 13.0082C49.9191 13.0055 49.9165 13.002 49.9147 12.9993C47.4025 8.89203 43.8396 5.52505 39.5915 3.24382C35.3434 0.962594 30.5631 -0.150731 25.7409 0.0180748C21.3221 0.174466 17.0086 1.4056 13.1761 3.60426C9.34365 5.80292 6.10844 8.90243 3.75226 12.6328C3.73717 12.6558 2.30677 14.9044 3.80909 16.3889C3.80909 16.3889 6.0155 19.0075 19.8045 19.7068C20.7598 19.7599 21.6948 19.8122 22.5862 19.8688C24.5325 19.9945 26.1937 20.207 27.8585 20.6213C28.694 20.8559 29.51 21.1117 30.2967 21.3906C33.2853 22.4502 35.8061 23.8161 37.0322 25.422C37.4282 25.9407 37.66 26.4648 37.7648 27.0004C37.7834 27.0951 37.8065 27.1907 37.8163 27.2863C37.8411 27.5421 37.8447 27.7997 37.8065 28.0636C37.7701 28.3158 37.6733 28.5735 37.5898 28.8311C37.5654 28.6792 37.5215 28.531 37.4593 28.3902C36.7268 26.9774 35.4918 26.062 35.1011 26.0372C34.8587 26.0222 34.7069 26.1063 34.5994 26.2895C34.5595 26.3561 34.5333 26.4299 34.5221 26.5067C34.511 26.5834 34.5152 26.6616 34.5345 26.7368C34.5538 26.8119 34.5879 26.8825 34.6347 26.9444C34.6815 27.0064 34.7401 27.0585 34.8072 27.0977C34.8232 27.1075 36.2811 27.9927 36.7321 29.3206C36.868 29.7588 36.9026 30.0819 36.892 30.3652C36.8706 30.8857 36.6371 31.2327 36.1559 31.5983C36.1435 31.5585 36.1204 31.5204 36.1079 31.4806C35.9793 31.1058 35.7828 30.7578 35.5282 30.4537C34.4511 29.179 33.4141 28.7602 33.3688 28.7452C33.2248 28.6958 33.0672 28.7035 32.9287 28.7667C32.7902 28.8299 32.6813 28.9437 32.6246 29.0846C32.5678 29.2255 32.5675 29.3827 32.6237 29.5239C32.6799 29.665 32.7884 29.7792 32.9266 29.8429C32.9355 29.8429 33.7453 30.1828 34.6145 31.2124C34.9395 31.5983 35.1011 31.987 35.102 32.3933C35.0886 32.4402 35.07 32.5438 35.0398 32.6677C34.9497 33.0513 34.7552 33.4026 34.4778 33.6831C34.072 34.1098 33.399 34.2806 33.0163 34.3134C33.0057 34.3134 32.9914 34.3178 32.9817 34.3187C31.9384 32.2525 30.595 31.9037 30.4317 31.871C30.2799 31.8405 30.1222 31.8708 29.9926 31.9552C29.863 32.0397 29.772 32.1716 29.7391 32.3225C29.7063 32.4743 29.7343 32.633 29.8173 32.7645C29.9003 32.896 30.0315 32.99 30.183 33.0262C30.2274 33.0369 31.1677 33.306 31.9588 34.9277C31.9624 34.9366 31.9677 34.9419 31.9713 34.9508C31.9535 35.0189 31.9144 35.3181 31.4767 35.5191C31.11 35.6873 30.7291 35.767 30.3331 35.7935C29.3244 35.8599 28.1844 35.4855 26.6821 34.6285C25.7258 34.0832 24.7731 33.4405 23.7636 32.7624C21.9461 31.539 19.8879 30.1527 17.385 29.0825C14.1743 27.7086 12.2085 27.8201 9.35575 28.0317C6.50295 28.2441 3.71053 28.9346 0.940307 29.6357C0.677491 29.742 0.462621 29.9102 0.306352 30.1465C-0.185541 30.8848 0.0604055 31.9772 0.0701723 32.0162C1.25728 38.3005 4.681 43.9847 9.70736 48.0214C14.7928 52.1015 21.1826 54.2178 27.7058 53.9827C39.9614 53.5445 50.4297 44.9372 53.159 33.0696L53.1945 32.9598L53.199 32.9448L53.2043 32.9147C53.326 32.1773 53.3641 30.706 52.6476 30.2873Z" fill="white"/>
</g>
<defs>
<clipPath id="clip0_215_1121">
<rect width="198" height="54" fill="white"/>
</clipPath>
</defs>
</svg>
