<svg width="54" height="54" viewBox="0 0 54 54" fill="none" xmlns="http://www.w3.org/2000/svg">
<path d="M20.8022 25.7898C20.6525 25.7901 20.5064 25.8363 20.3821 25.9226C20.2579 26.0088 20.1611 26.1312 20.104 26.2743C20.047 26.4174 20.0322 26.5748 20.0616 26.7266C20.091 26.8784 20.1632 27.0178 20.2691 27.1271C20.375 27.2365 20.5099 27.3109 20.6566 27.341C20.8034 27.371 20.9555 27.3554 21.0937 27.2962C21.2319 27.2368 21.35 27.1365 21.4331 27.0077C21.5162 26.879 21.5606 26.7277 21.5606 26.5728C21.5606 26.4699 21.541 26.3679 21.5028 26.2728C21.4647 26.1777 21.4088 26.0913 21.3384 26.0186C21.2679 25.9458 21.1843 25.8882 21.0923 25.849C21.0003 25.8097 20.9017 25.7896 20.8022 25.7898Z" fill="white"/>
<path d="M28.2847 25.7083C28.1233 25.7083 27.9655 25.7577 27.8314 25.8505C27.6972 25.9432 27.5926 26.0751 27.5309 26.2294C27.4691 26.3836 27.4529 26.5534 27.4844 26.717C27.5159 26.8808 27.5936 27.0312 27.7077 27.1493C27.8218 27.2674 27.9672 27.3477 28.1255 27.3803C28.2837 27.4129 28.4478 27.3962 28.5969 27.3322C28.746 27.2683 28.8734 27.1602 28.9631 27.0213C29.0527 26.8825 29.1006 26.7193 29.1006 26.5524C29.1006 26.3285 29.0146 26.1138 28.8616 25.9555C28.7086 25.7971 28.501 25.7083 28.2847 25.7083Z" fill="white"/>
<path d="M35.0565 18H18.9435C18.557 17.9998 18.1743 18.0784 17.8172 18.2312C17.4601 18.3841 17.1356 18.6082 16.8622 18.8909C16.5889 19.1735 16.372 19.5091 16.2241 19.8786C16.0761 20.248 16 20.6439 16 21.0437V30.9386C16 31.7463 16.3101 32.5208 16.8621 33.092C17.4141 33.6631 18.1628 33.9839 18.9435 33.9839H24.6346L26.5695 36.5916C26.5695 36.5916 26.7032 37 27.0264 37C27.3497 37 27.4818 36.5916 27.4818 36.5916L29.4182 33.9839H35.0565C35.8372 33.9839 36.5859 33.6631 37.1379 33.092C37.6899 32.5208 38 31.7463 38 30.9386V21.0437C38 20.6439 37.9238 20.248 37.7759 19.8786C37.628 19.5091 37.4111 19.1735 37.1378 18.8909C36.8644 18.6082 36.5399 18.3841 36.1828 18.2312C35.8257 18.0784 35.443 17.9998 35.0565 18ZM22.9111 26.7453C22.9018 28.5542 21.0944 28.6072 21.0944 28.6072C20.891 28.6068 20.6898 28.5638 20.5028 28.481C20.3159 28.398 20.147 28.277 20.0065 28.1248V28.4464H18.6902V22.8365C18.7725 22.8493 20.0065 22.8365 20.0065 22.8365V24.9847C20.3173 24.4379 21.2125 24.4475 21.2125 24.4475C23.1551 24.6325 22.9111 26.7453 22.9111 26.7453ZM25.2345 24.6164V28.4625H23.9446V24.655C23.9446 24.1373 23.323 23.9942 23.323 23.9942V22.65C25.3775 22.7368 25.2345 24.6164 25.2345 24.6164ZM28.2884 28.6088C27.0948 28.6088 26.1281 27.6875 26.1281 26.5523C26.1281 25.4172 27.0948 24.4942 28.2884 24.4942C29.4819 24.4942 30.4486 25.4155 30.4486 26.5523C30.4486 27.6891 29.4773 28.6088 28.2837 28.6088H28.2884ZM35.3471 28.6088C35.3471 28.6088 35.3658 30.5624 33.4465 30.5624H32.8637V29.297H33.2149C33.2149 29.297 34.0215 29.3741 34.0121 28.0879C34.0121 28.0879 33.8567 28.6088 32.7238 28.6088C32.7238 28.6088 31.1199 28.4898 31.1199 26.8707V26.2564C31.1199 26.2564 31.1572 24.5779 32.9181 24.4444C33.1317 24.4292 33.3458 24.4685 33.5414 24.5587C33.737 24.649 33.9082 24.7875 34.0401 24.9621V24.5489H35.3363L35.3471 28.6088Z" fill="white"/>
<path d="M33.2934 25.7278C33.1357 25.7278 32.9815 25.7762 32.8504 25.8668C32.7193 25.9574 32.6171 26.0862 32.5568 26.237C32.4964 26.3878 32.4807 26.5535 32.5114 26.7135C32.5422 26.8735 32.6181 27.0205 32.7296 27.1359C32.8411 27.2512 32.9832 27.3298 33.1378 27.3617C33.2925 27.3935 33.4528 27.3772 33.5985 27.3147C33.7441 27.2522 33.8686 27.1465 33.9563 27.0109C34.0439 26.8752 34.0906 26.7158 34.0906 26.5526C34.0906 26.3339 34.0066 26.1241 33.8571 25.9694C33.7076 25.8147 33.5048 25.7278 33.2934 25.7278Z" fill="white"/>
</svg>
