<svg width="54" height="54" viewBox="0 0 54 54" fill="none" xmlns="http://www.w3.org/2000/svg">
<path d="M17.9601 17.0141C18.353 16.9635 18.7515 17.05 19.0873 17.2588L30.5356 23.7157L27.6383 26.6252L17.9601 17.0141ZM17.0794 17.8878C17.0242 18.0781 16.9975 18.2753 17.0002 18.4733V36.5246C16.9975 36.7226 17.0242 36.9198 17.0794 37.1101L26.7665 27.499L17.0794 17.8878ZM27.6471 28.3727L17.9601 37.9838C18.3532 38.039 18.7533 37.9522 19.0873 37.7391L30.5356 31.2822L27.6471 28.3727ZM35.1502 26.3281L31.6805 24.371L28.5102 27.499L31.6717 30.6357L35.1414 28.6785C36.2862 28.0319 36.2862 26.966 35.1414 26.3194L35.1502 26.3281Z" fill="white"/>
</svg>
